<svg width="27" height="27" viewBox="0 0 27 27" fill="none" xmlns="http://www.w3.org/2000/svg">
<path d="M23.5351 2.67762C22.2722 2.39458 20.9819 2.25122 19.6876 2.25012C18.4653 2.17251 17.2397 2.33731 16.0813 2.73503C14.9229 3.13275 13.8545 3.75555 12.9376 4.56762C11.7301 5.77512 10.5339 6.97887 9.34887 8.17887C7.98762 8.03262 4.75887 7.95387 2.59887 10.1364C2.38934 10.3472 2.27173 10.6323 2.27173 10.9295C2.27173 11.2267 2.38934 11.5118 2.59887 11.7226L15.3114 24.4576C15.5222 24.6672 15.8073 24.7848 16.1045 24.7848C16.4017 24.7848 16.6868 24.6672 16.8976 24.4576C19.0914 22.2076 19.0239 19.0351 18.8889 17.7076L22.5001 14.1076C26.0889 10.5189 24.4576 3.78012 24.3901 3.49887C24.3382 3.29596 24.2306 3.11158 24.0796 2.96648C23.9285 2.82139 23.74 2.72135 23.5351 2.67762ZM20.8801 12.5214L16.8751 16.5039C16.7454 16.6348 16.6499 16.7957 16.5969 16.9722C16.544 17.1488 16.5352 17.3356 16.5714 17.5164C16.8151 19.0214 16.6035 20.5649 15.9639 21.9489L5.08512 11.0476C6.4912 10.4005 8.06301 10.204 9.58512 10.4851C9.76521 10.5086 9.94829 10.4881 10.1187 10.4254C10.2892 10.3627 10.4419 10.2597 10.5639 10.1251C10.5639 10.1251 12.1389 8.49387 14.5126 6.12012C15.9717 4.947 17.8201 4.36838 19.6876 4.50012C20.566 4.50442 21.4426 4.57967 22.3089 4.72512C22.5789 6.33387 23.0064 10.3951 20.8801 12.5214Z" fill="white"/>
<path d="M17.6963 11.5874C18.9389 11.5874 19.9463 10.58 19.9463 9.3374C19.9463 8.09476 18.9389 7.0874 17.6963 7.0874C16.4536 7.0874 15.4463 8.09476 15.4463 9.3374C15.4463 10.58 16.4536 11.5874 17.6963 11.5874Z" fill="white"/>
<path d="M5.625 18C3.375 19.125 3.375 23.625 3.375 23.625C5.45765 23.5666 7.45157 22.769 9 21.375L5.625 18Z" fill="white"/>
</svg>
