<svg width="27" height="27" viewBox="0 0 27 27" fill="none" xmlns="http://www.w3.org/2000/svg">
<path d="M10.4063 24.75L9.95635 21.15C9.7126 21.0562 9.4831 20.9438 9.26785 20.8125C9.0526 20.6812 8.84147 20.5406 8.63447 20.3906L5.2876 21.7969L2.19385 16.4531L5.09072 14.2594C5.07197 14.1281 5.0626 14.0017 5.0626 13.8802V13.1209C5.0626 12.9986 5.07197 12.8719 5.09072 12.7406L2.19385 10.5469L5.2876 5.20312L8.63447 6.60938C8.84072 6.45937 9.05635 6.31875 9.28135 6.1875C9.50635 6.05625 9.73135 5.94375 9.95635 5.85L10.4063 2.25H16.5938L17.0438 5.85C17.2876 5.94375 17.5175 6.05625 17.7335 6.1875C17.9495 6.31875 18.1602 6.45937 18.3657 6.60938L21.7126 5.20312L24.8063 10.5469L22.7251 12.1219C22.3126 11.9156 21.8907 11.7424 21.4595 11.6021C21.0282 11.4619 20.5688 11.3632 20.0813 11.3063L21.8532 9.95625L20.7563 8.04375L17.972 9.225C17.5595 8.79375 17.1046 8.433 16.6073 8.14275C16.1101 7.8525 15.5712 7.632 14.9907 7.48125L14.6251 4.5H12.4032L12.0095 7.48125C11.4282 7.63125 10.8893 7.85175 10.3928 8.14275C9.89635 8.43375 9.44147 8.78513 9.02822 9.19688L6.24385 8.04375L5.14697 9.95625L7.56572 11.7562C7.47197 12.0375 7.40635 12.3187 7.36885 12.6C7.33135 12.8812 7.3126 13.1812 7.3126 13.5C7.3126 13.8 7.33135 14.0906 7.36885 14.3719C7.40635 14.6531 7.47197 14.9344 7.56572 15.2156L5.14697 17.0437L6.24385 18.9563L9.02822 17.775C9.34697 18.0938 9.68935 18.3799 10.0553 18.6334C10.4213 18.8869 10.8196 19.0976 11.2501 19.2656C11.2688 20.3344 11.4893 21.3375 11.9116 22.275C12.3338 23.2125 12.9008 24.0375 13.6126 24.75H10.4063ZM11.5595 16.9031C11.672 16.5281 11.8081 16.167 11.9678 15.8197C12.1276 15.4725 12.3102 15.1399 12.5157 14.8219C12.3095 14.6719 12.1501 14.4795 12.0376 14.2448C11.9251 14.01 11.8688 13.7618 11.8688 13.5C11.8688 13.0312 12.0327 12.633 12.3605 12.3053C12.6882 11.9775 13.0868 11.8132 13.5563 11.8125C13.8188 11.8125 14.072 11.8736 14.3157 11.9959C14.5595 12.1181 14.7563 12.282 14.9063 12.4875C15.2251 12.2812 15.5532 12.0983 15.8907 11.9385C16.2282 11.7788 16.5845 11.6524 16.9595 11.5594C16.622 10.9594 16.1532 10.4764 15.5532 10.1104C14.9532 9.74438 14.2876 9.56175 13.5563 9.5625C12.4501 9.5625 11.5171 9.94687 10.7573 10.7156C9.9976 11.4844 9.6181 12.4125 9.61885 13.5C9.61885 14.2125 9.79247 14.8736 10.1397 15.4834C10.487 16.0931 10.9602 16.5664 11.5595 16.9031ZM19.1251 22.5L22.5001 19.125L19.1251 15.75L18.3376 16.5375L20.3626 18.5625H15.7501V19.6875H20.3345L18.3376 21.7125L19.1251 22.5ZM19.1251 24.75C17.5688 24.75 16.2425 24.2014 15.146 23.1041C14.0495 22.0069 13.5008 20.6805 13.5001 19.125C13.4993 17.5695 14.048 16.2431 15.146 15.1459C16.244 14.0486 17.5703 13.5 19.1251 13.5C20.6798 13.5 22.0066 14.0486 23.1053 15.1459C24.2041 16.2431 24.7523 17.5695 24.7501 19.125C24.7478 20.6805 24.1992 22.0072 23.1042 23.1052C22.0092 24.2033 20.6828 24.7515 19.1251 24.75Z" fill="white"/>
</svg>
