<svg width="60" height="60" viewBox="0 0 60 60" fill="none" xmlns="http://www.w3.org/2000/svg">
<rect width="60" height="60" rx="15" fill="white"/>
<path d="M39.4999 25.9286V21.8572C39.4999 19.3376 38.499 16.9213 36.7174 15.1397C34.9358 13.3581 32.5195 12.3572 29.9999 12.3572C27.4803 12.3572 25.064 13.3581 23.2824 15.1397C21.5008 16.9213 20.4999 19.3376 20.4999 21.8572V25.9286M40.857 25.9286H19.1428C18.4229 25.9286 17.7325 26.2146 17.2235 26.7236C16.7144 27.2326 16.4285 27.923 16.4285 28.6429V44.9286C16.4285 45.6485 16.7144 46.3389 17.2235 46.8479C17.7325 47.3569 18.4229 47.6429 19.1428 47.6429H40.857C41.5769 47.6429 42.2673 47.3569 42.7763 46.8479C43.2854 46.3389 43.5713 45.6485 43.5713 44.9286V28.6429C43.5713 27.923 43.2854 27.2326 42.7763 26.7236C42.2673 26.2146 41.5769 25.9286 40.857 25.9286Z" stroke="black" stroke-width="2.28571" stroke-linecap="round" stroke-linejoin="round"/>
<path d="M30 38.1429C30.3599 38.1429 30.7051 37.9999 30.9596 37.7454C31.2141 37.4909 31.3571 37.1457 31.3571 36.7857C31.3571 36.4258 31.2141 36.0806 30.9596 35.8261C30.7051 35.5716 30.3599 35.4286 30 35.4286C29.64 35.4286 29.2948 35.5716 29.0403 35.8261C28.7858 36.0806 28.6428 36.4258 28.6428 36.7857C28.6428 37.1457 28.7858 37.4909 29.0403 37.7454C29.2948 37.9999 29.64 38.1429 30 38.1429Z" stroke="black" stroke-width="2.28571" stroke-linecap="round" stroke-linejoin="round"/>
</svg>
