<svg width="60" height="60" viewBox="0 0 60 60" fill="none" xmlns="http://www.w3.org/2000/svg">
<rect width="60" height="60" rx="15" fill="white"/>
<path d="M37.7501 29.8333C37.7501 31.3991 37.2858 32.9297 36.4159 34.2316C35.546 35.5334 34.3096 36.5481 32.863 37.1473C31.4164 37.7465 29.8246 37.9033 28.289 37.5978C26.7533 37.2924 25.3427 36.5384 24.2355 35.4312C23.1283 34.3241 22.3743 32.9134 22.0689 31.3778C21.7634 29.8421 21.9202 28.2503 22.5194 26.8037C23.1186 25.3571 24.1333 24.1207 25.4352 23.2508C26.737 22.3809 28.2676 21.9166 29.8334 21.9166" stroke="black" stroke-width="2" stroke-linecap="round"/>
<path d="M33 14.3167C31.9761 14.1077 30.9206 14.0021 29.8333 14C21.0886 14 14 21.0886 14 29.8333C14 38.5781 21.0886 45.6667 29.8333 45.6667C38.5781 45.6667 45.6667 38.5781 45.6667 29.8333C45.6646 28.7461 45.559 27.6906 45.35 26.6667" stroke="black" stroke-width="2" stroke-linecap="round"/>
<path d="M29.8809 29.7747L37.0898 22.5658M42.0884 17.7129L41.2128 14.5652C41.1778 14.4453 41.1137 14.3359 41.0264 14.2466C40.939 14.1573 40.831 14.091 40.7118 14.0534C40.5927 14.0158 40.4661 14.0082 40.3433 14.0312C40.2205 14.0542 40.1053 14.1071 40.0079 14.1852C37.7342 16.0425 35.2579 18.5457 37.2798 22.493C41.3553 24.393 43.6828 21.8311 45.4656 19.6762C45.5463 19.577 45.6009 19.4592 45.6246 19.3335C45.6483 19.2078 45.6403 19.0782 45.6013 18.9564C45.5623 18.8346 45.4936 18.7244 45.4014 18.6359C45.3091 18.5473 45.1962 18.4831 45.0729 18.4491L42.0884 17.7129Z" stroke="black" stroke-width="2" stroke-linecap="round" stroke-linejoin="round"/>
</svg>
