<svg width="60" height="60" viewBox="0 0 60 60" fill="none" xmlns="http://www.w3.org/2000/svg">
<rect width="60" height="60" rx="15" fill="white"/>
<path d="M45.275 14.9937C45.2624 14.9328 45.2326 14.8767 45.1892 14.8321C45.1458 14.7876 45.0906 14.7563 45.0301 14.7421C40.994 13.7549 31.6707 17.2722 26.6142 22.325C25.713 23.2188 24.8913 24.1893 24.1583 25.2255C22.5997 25.0844 21.0411 25.2032 19.714 25.7821C15.9667 27.4298 14.8765 31.733 14.5722 33.5803C14.5557 33.6815 14.5627 33.7851 14.5927 33.8832C14.6228 33.9813 14.675 34.0711 14.7453 34.1457C14.8156 34.2204 14.9022 34.2778 14.9983 34.3136C15.0944 34.3494 15.1975 34.3626 15.2995 34.3521L21.3164 33.6916C21.3205 34.1454 21.3478 34.5987 21.3981 35.0498C21.4295 35.3616 21.5686 35.6526 21.7914 35.8729L24.1211 38.2026C24.3416 38.4256 24.633 38.5647 24.945 38.596C25.3933 38.646 25.8439 38.6732 26.295 38.6776L25.6352 44.6893C25.6249 44.7912 25.6382 44.8941 25.674 44.9901C25.7098 45.086 25.7672 45.1724 25.8417 45.2427C25.9162 45.3129 26.0059 45.365 26.1038 45.3951C26.2017 45.4251 26.3052 45.4323 26.4063 45.4159C28.2544 45.1191 32.5665 44.0288 34.2045 40.2822C34.7834 38.9537 34.9022 37.4033 34.7686 35.8521C35.8078 35.1198 36.7811 34.298 37.6772 33.3962C42.7523 28.3493 46.2472 19.2308 45.275 14.9937ZM33.1662 26.8583C32.7229 26.4151 32.421 25.8504 32.2987 25.2356C32.1763 24.6209 32.239 23.9836 32.4789 23.4045C32.7187 22.8254 33.1249 22.3304 33.6461 21.9821C34.1673 21.6338 34.78 21.448 35.4069 21.448C36.0337 21.448 36.6464 21.6338 37.1676 21.9821C37.6888 22.3304 38.095 22.8254 38.3348 23.4045C38.5747 23.9836 38.6374 24.6209 38.515 25.2356C38.3927 25.8504 38.0908 26.4151 37.6475 26.8583C37.3535 27.1529 37.0042 27.3867 36.6198 27.5462C36.2353 27.7057 35.8231 27.7878 35.4069 27.7878C34.9906 27.7878 34.5784 27.7057 34.1939 27.5462C33.8095 27.3867 33.4602 27.1529 33.1662 26.8583Z" stroke="black" stroke-width="2" stroke-linecap="round" stroke-linejoin="round"/>
<path d="M19.1373 37.125C18.3975 37.2158 17.7091 37.5512 17.1817 38.078C15.8739 39.3902 15.75 44.25 15.75 44.25C15.75 44.25 20.6128 44.1261 21.9213 42.8168C22.4502 42.2902 22.7861 41.6007 22.875 40.8597" stroke="black" stroke-width="2" stroke-linecap="round" stroke-linejoin="round"/>
</svg>
