<svg width="110" height="110" viewBox="0 0 110 110" fill="none" xmlns="http://www.w3.org/2000/svg">
<rect width="110" height="110" rx="10" fill="url(#paint0_linear_24_277)"/>
<path d="M92.0244 45.7696L63.7401 17.4853C59.0538 12.799 51.4558 12.799 46.7696 17.4853L18.4853 45.7696C13.799 50.4558 13.799 58.0538 18.4853 62.7401L46.7696 91.0244C51.4558 95.7107 59.0538 95.7107 63.7401 91.0244L92.0244 62.7401C96.7107 58.0538 96.7107 50.4558 92.0244 45.7696Z" fill="white"/>
<path d="M55 30L63 46L79 54L63 62L55 78L47 62L31 54L47 46L55 30Z" fill="url(#paint1_linear_24_277)"/>
<rect x="30" y="33.5533" width="6.04536" height="65" transform="rotate(-45 30 33.5533)" fill="url(#paint2_linear_24_277)"/>
<rect x="76.0268" y="28.981" width="6.02687" height="65" transform="rotate(45 76.0268 28.981)" fill="url(#paint3_linear_24_277)"/>
<defs>
<linearGradient id="paint0_linear_24_277" x1="55" y1="0" x2="55" y2="110" gradientUnits="userSpaceOnUse">
<stop stop-color="#090E11"/>
<stop offset="1" stop-color="#090E11"/>
</linearGradient>
<linearGradient id="paint1_linear_24_277" x1="55" y1="30" x2="55" y2="78" gradientUnits="userSpaceOnUse">
<stop stop-color="#090E11"/>
<stop offset="1" stop-color="#090E11"/>
</linearGradient>
<linearGradient id="paint2_linear_24_277" x1="33.0227" y1="33.5533" x2="33.0227" y2="98.5533" gradientUnits="userSpaceOnUse">
<stop stop-color="#090E11"/>
<stop offset="1" stop-color="#090E11"/>
</linearGradient>
<linearGradient id="paint3_linear_24_277" x1="79.0402" y1="28.981" x2="79.0402" y2="93.981" gradientUnits="userSpaceOnUse">
<stop stop-color="#090E11"/>
<stop offset="1" stop-color="#090E11"/>
</linearGradient>
</defs>
</svg>
