<svg width="159" height="32" viewBox="0 0 159 32" fill="none" xmlns="http://www.w3.org/2000/svg">
<path d="M43.5735 21.9922C42.5081 21.9922 41.5551 21.7571 40.7145 21.2867C39.8739 20.8165 39.21 20.1346 38.7227 19.241C38.241 18.3476 38 17.2685 38 16.0039C38 14.729 38.2436 13.6448 38.7308 12.7512C39.2234 11.8576 39.8899 11.1757 40.7305 10.7055C41.5765 10.2352 42.5241 10 43.5735 10C44.4998 10 45.3323 10.1672 46.0712 10.5016C46.8153 10.8361 47.423 11.3195 47.8942 11.9517C48.3653 12.584 48.6544 13.3494 48.7616 14.2482H46.2077C46.1113 13.6056 45.8302 13.1013 45.3643 12.7356C44.8986 12.3645 44.3203 12.179 43.6297 12.179C42.7088 12.179 41.9673 12.5134 41.4052 13.1822C40.8429 13.8459 40.5618 14.7865 40.5618 16.0039C40.5618 17.2476 40.8429 18.1933 41.4052 18.8413C41.9726 19.4893 42.7115 19.8133 43.6217 19.8133C44.2909 19.8133 44.8584 19.6409 45.3243 19.296C45.7954 18.9511 46.0898 18.4677 46.2077 17.8459H48.7616C48.6706 18.5617 48.4082 19.2358 47.9744 19.8681C47.5461 20.5005 46.9599 21.0125 46.2156 21.4043C45.4769 21.7963 44.5961 21.9922 43.5735 21.9922ZM50.5845 21.8355V10.1568H53.1063V14.9771H58.238V10.1568H60.7678V21.8355H58.238V17.0072H53.1063V21.8355H50.5845ZM64.9119 21.8355H62.1973L66.3333 10.1568H69.5858L73.7137 21.8355H71.0073L70.1158 19.1705H65.7952L64.9119 21.8355ZM66.4376 17.2424H69.4734L68.0037 12.8217H67.9074L66.4376 17.2424ZM79.5764 22C78.1255 22 76.9663 21.6761 76.099 21.0282C75.237 20.3802 74.7872 19.4266 74.7498 18.1673H77.1992C77.2421 18.7525 77.4776 19.1941 77.9059 19.4918C78.3396 19.7845 78.8858 19.9309 79.5442 19.9309C80.1867 19.9309 80.7007 19.7976 81.0862 19.531C81.4771 19.2646 81.6725 18.9172 81.6725 18.4886C81.6725 18.0968 81.4958 17.7963 81.1425 17.5872C80.7891 17.3731 80.2858 17.1901 79.6326 17.0386L78.3235 16.7251C77.3169 16.4899 76.522 16.1163 75.9384 15.6042C75.3601 15.087 75.071 14.3972 75.071 13.535C75.071 12.8296 75.2665 12.2129 75.6573 11.6852C76.0482 11.1523 76.5835 10.7395 77.2635 10.4468C77.9488 10.149 78.7277 10 79.6005 10C80.4892 10 81.2656 10.149 81.9295 10.4468C82.5934 10.7447 83.11 11.1575 83.4794 11.6852C83.8543 12.2129 84.047 12.8217 84.0577 13.5114H81.6163C81.5734 13.0569 81.3754 12.7016 81.022 12.4456C80.6687 12.1895 80.1895 12.0615 79.5844 12.0615C78.9687 12.0615 78.4948 12.1869 78.1629 12.4377C77.8309 12.6833 77.6651 12.9968 77.6651 13.3782C77.6651 13.791 77.8497 14.1046 78.2192 14.3189C78.5886 14.5278 79.033 14.6925 79.5523 14.8126L80.6204 15.0713C81.3164 15.2227 81.9348 15.4449 82.4755 15.7375C83.0164 16.0248 83.442 16.3959 83.7525 16.8504C84.063 17.2999 84.2183 17.8485 84.2183 18.4965C84.2183 19.5677 83.8087 20.4194 82.9895 21.0517C82.1704 21.6839 81.0327 22 79.5764 22ZM85.9209 21.8355V10.1568H93.984V12.1947H88.4425V14.9381H93.5584V16.9367H88.4425V19.7976H94V21.8355H85.9209Z" fill="white"/>
<path d="M100.37 10.1667C102.052 10.1667 103.343 10.6722 104.244 11.6833C105.156 12.6833 105.612 14.1222 105.612 16C105.612 17.2 105.4 18.2389 104.977 19.1167C104.564 19.9944 103.962 20.6667 103.17 21.1333C102.388 21.6 101.455 21.8333 100.37 21.8333H97V10.1667H100.37ZM100.37 20.8333C101.694 20.8333 102.698 20.4278 103.381 19.6167C104.065 18.7944 104.407 17.5944 104.407 16.0167C104.407 14.3833 104.071 13.1667 103.398 12.3667C102.736 11.5667 101.726 11.1667 100.37 11.1667H98.1721V20.8333H100.37ZM116.061 21.7833C115.844 21.9055 115.61 21.9667 115.361 21.9667C115.165 21.9667 115.003 21.9278 114.872 21.85C114.753 21.7722 114.644 21.6444 114.547 21.4667L112.691 18.2C112.43 17.7333 112.11 17.4056 111.73 17.2167C111.361 17.0167 110.857 16.9167 110.217 16.9167H109.11V21.8333H107.937V10.1667H111.633C112.946 10.1667 113.977 10.4667 114.726 11.0667C115.475 11.6556 115.849 12.4778 115.849 13.5333C115.849 14.3667 115.578 15.0889 115.035 15.7C114.492 16.3 113.787 16.6722 112.919 16.8167C113.234 17.0833 113.516 17.4222 113.765 17.8333L116.061 21.7833ZM111.551 15.8833C112.528 15.8833 113.282 15.6778 113.814 15.2667C114.357 14.8556 114.628 14.2778 114.628 13.5333C114.628 12.7667 114.373 12.1889 113.863 11.8C113.364 11.4 112.62 11.2 111.633 11.2H109.11V15.8833H111.551ZM124.996 20.8333C124.996 21.2333 124.937 21.5 124.817 21.6333C124.709 21.7667 124.486 21.8333 124.15 21.8333H118.175V10.1667H124.98V11.1667H119.348V15.3667H124.199V16.3667H119.348V20.8333H124.996ZM134.529 21.8333C134.236 20.4556 133.959 19.3278 133.699 18.45H128.164C127.903 19.3278 127.627 20.4556 127.334 21.8333H126.129C126.693 19.4556 127.306 17.3444 127.968 15.5C128.63 13.6444 129.417 11.8667 130.329 10.1667H131.55C132.451 11.8556 133.232 13.6278 133.894 15.4833C134.556 17.3278 135.169 19.4444 135.733 21.8333H134.529ZM133.422 17.45C132.76 15.2944 131.93 13.2722 130.931 11.3833C129.933 13.2722 129.102 15.2944 128.44 17.45H133.422ZM147.066 21.8333C146.968 18.3444 146.659 15.0167 146.138 11.85C145.747 12.7611 145.362 13.7778 144.982 14.9C144.602 16.0111 143.994 17.9333 143.159 20.6667H142.312C141.574 18.2667 140.993 16.4611 140.57 15.25C140.158 14.0278 139.74 12.9111 139.317 11.9C138.796 14.9333 138.487 18.2444 138.389 21.8333H137.217C137.271 19.7444 137.401 17.6889 137.607 15.6667C137.825 13.6444 138.101 11.8111 138.438 10.1667H139.74C140.391 11.6 140.939 12.9111 141.384 14.1C141.829 15.2889 142.28 16.65 142.735 18.1833C143.191 16.65 143.642 15.2944 144.087 14.1167C144.531 12.9278 145.074 11.6111 145.714 10.1667H147.017C147.353 11.8111 147.624 13.6444 147.831 15.6667C148.048 17.6889 148.183 19.7444 148.238 21.8333H147.066ZM154.718 22C153.97 22 153.28 21.8833 152.651 21.65C152.021 21.4055 151.522 21.0778 151.153 20.6667C150.784 20.2556 150.6 19.8056 150.6 19.3167C150.6 19.0944 150.676 18.9167 150.828 18.7833C150.99 18.6389 151.202 18.5611 151.463 18.55C151.636 19.3389 152.005 19.9389 152.57 20.35C153.134 20.7611 153.861 20.9667 154.751 20.9667C155.663 20.9667 156.395 20.75 156.949 20.3167C157.513 19.8833 157.795 19.3167 157.795 18.6167C157.795 18.2056 157.692 17.8556 157.486 17.5667C157.291 17.2778 156.965 17.0222 156.509 16.8C156.053 16.5667 155.424 16.3444 154.621 16.1333C153.687 15.8778 152.955 15.6111 152.423 15.3333C151.891 15.0444 151.506 14.7222 151.267 14.3667C151.039 14 150.925 13.55 150.925 13.0167C150.925 12.0833 151.262 11.35 151.935 10.8167C152.608 10.2722 153.535 10 154.718 10C155.749 10 156.607 10.25 157.291 10.75C157.985 11.2389 158.452 11.9333 158.691 12.8333C158.55 12.9778 158.333 13.05 158.04 13.05C157.736 13.05 157.513 12.9 157.372 12.6C157.133 12.1111 156.77 11.7222 156.281 11.4333C155.804 11.1444 155.283 11 154.718 11C153.861 11 153.21 11.1722 152.765 11.5167C152.32 11.8611 152.097 12.3611 152.097 13.0167C152.097 13.35 152.179 13.6333 152.342 13.8667C152.504 14.0889 152.776 14.2944 153.156 14.4833C153.535 14.6722 154.073 14.8667 154.767 15.0667C155.928 15.4 156.802 15.7167 157.388 16.0167C157.985 16.3167 158.403 16.6556 158.642 17.0333C158.881 17.4111 159 17.9056 159 18.5167C159 19.2167 158.826 19.8333 158.479 20.3667C158.132 20.8889 157.633 21.2944 156.981 21.5833C156.341 21.8611 155.587 22 154.718 22Z" fill="white"/>
<path d="M30.604 12.6299L19.3701 1.39597C17.5089 -0.465323 14.4911 -0.465323 12.6299 1.39597L1.39597 12.6299C-0.465323 14.4911 -0.465323 17.5089 1.39597 19.3701L12.6299 30.604C14.4911 32.4653 17.5089 32.4653 19.3701 30.604L30.604 19.3701C32.4653 17.5089 32.4653 14.4911 30.604 12.6299Z" fill="white"/>
<path d="M16 6L19.3333 12.6667L26 16L19.3333 19.3333L16 26L12.6667 19.3333L6 16L12.6667 12.6667L16 6Z" fill="#07012A"/>
<path d="M7.28275 5.94973L5.46729 7.71332L24.9872 26.6755L26.8027 24.9119L7.28275 5.94973Z" fill="#07012A"/>
<path d="M26.8246 7.38634L25.0146 5.62814L5.49472 24.5904L7.30462 26.3486L26.8246 7.38634Z" fill="#07012A"/>
</svg>
