<svg width="199" height="199" viewBox="0 0 199 199" fill="none" xmlns="http://www.w3.org/2000/svg">
<path d="M190.319 78.5419L120.458 8.68118C108.883 -2.89373 90.1165 -2.89373 78.5419 8.68118L8.68118 78.5419C-2.89373 90.1165 -2.89373 108.883 8.68118 120.458L78.5419 190.319C90.1165 201.894 108.883 201.894 120.458 190.319L190.319 120.458C201.894 108.883 201.894 90.1165 190.319 78.5419Z" fill="white"/>
<path d="M99.5 37L120.333 78.6667L162 99.5L120.333 120.333L99.5 162L78.6667 120.333L37 99.5L78.6667 78.6667L99.5 37Z" fill="#0F0F0F"/>
<path d="M45.2899 36.9999L34 47.9673L155.39 165.889L166.679 154.921L45.2899 36.9999Z" fill="#0F0F0F"/>
<path d="M166.816 45.9338L155.56 35L34.1707 152.921L45.4261 163.855L166.816 45.9338Z" fill="#0F0F0F"/>
</svg>
