<svg width="300" height="29" viewBox="0 0 300 29" fill="none" xmlns="http://www.w3.org/2000/svg">
<path d="M13.8342 28.9812C11.1898 28.9812 8.8243 28.4129 6.73781 27.2763C4.65132 26.14 3.00335 24.4919 1.79391 22.3325C0.598078 20.1733 0 17.5654 0 14.5095C0 11.4284 0.604547 8.80826 1.81398 6.64878C3.03669 4.48931 4.69112 2.84125 6.77761 1.70494C8.87737 0.568308 11.2296 0 13.8342 0C16.1333 0 18.1997 0.404093 20.0338 1.21228C21.8808 2.02047 23.3893 3.18878 24.5589 4.71658C25.7282 6.2447 26.4457 8.09446 26.7117 10.2665H20.3727C20.1335 8.71353 19.4357 7.49479 18.2794 6.61096C17.1233 5.7142 15.688 5.26582 13.9737 5.26582C11.6878 5.26582 9.8473 6.074 8.45211 7.69038C7.05658 9.29414 6.35882 11.5674 6.35882 14.5095C6.35882 17.515 7.05658 19.8006 8.45211 21.3665C9.86057 22.9325 11.6946 23.7154 13.954 23.7154C15.6149 23.7154 17.0236 23.2987 18.18 22.4653C19.3493 21.6319 20.0801 20.4636 20.3727 18.961H26.7117C26.4858 20.6909 25.8347 22.3199 24.7579 23.848C23.6948 25.3761 22.2397 26.6136 20.3924 27.5605C18.5587 28.5076 16.3725 28.9812 13.8342 28.9812ZM31.2365 28.6024V0.378875H37.496V12.0281H50.2337V0.378875H56.5129V28.6024H50.2337V16.9341H37.496V28.6024H31.2365ZM66.7991 28.6024H60.0613L70.3274 0.378875H78.4005L88.6466 28.6024H81.9288L79.7161 22.1621H68.9917L66.7991 28.6024ZM70.5863 17.5024H78.1215L74.4735 6.81915H74.2343L70.5863 17.5024ZM103.199 29C99.5971 29 96.72 28.2173 94.5672 26.6514C92.4276 25.0855 91.3111 22.7808 91.2182 19.7375H97.298C97.4045 21.1519 97.989 22.219 99.0521 22.9386C100.129 23.6459 101.484 23.9996 103.119 23.9996C104.714 23.9996 105.989 23.6776 106.946 23.0333C107.916 22.3894 108.401 21.5498 108.401 20.514C108.401 19.5672 107.963 18.8411 107.086 18.3358C106.209 17.8182 104.96 17.376 103.338 17.0101L100.089 16.2523C97.5903 15.684 95.6171 14.7811 94.1685 13.5436C92.7331 12.2935 92.0156 10.6267 92.0156 8.54285C92.0156 6.83822 92.5008 5.34793 93.4707 4.07261C94.441 2.78469 95.7698 1.78706 97.4576 1.07974C99.1586 0.360127 101.092 0 103.258 0C105.464 0 107.391 0.360127 109.039 1.07974C110.687 1.79967 111.969 2.7973 112.886 4.07261C113.817 5.34793 114.295 6.81916 114.322 8.48596H108.262C108.155 7.38747 107.664 6.52885 106.787 5.9101C105.91 5.29135 104.72 4.98198 103.218 4.98198C101.69 4.98198 100.514 5.28489 99.69 5.89103C98.866 6.48457 98.4544 7.24232 98.4544 8.16397C98.4544 9.1616 98.9127 9.91936 99.8299 10.4372C100.747 10.9422 101.85 11.3401 103.139 11.6304L105.79 12.2557C107.518 12.6216 109.053 13.1586 110.395 13.8656C111.737 14.56 112.793 15.4567 113.564 16.5552C114.335 17.6414 114.72 18.9672 114.72 20.5331C114.72 23.1219 113.704 25.1802 111.67 26.7083C109.637 28.2361 106.813 29 103.199 29ZM118.946 28.6024V0.378875H138.96V5.30396H125.206V11.9337H137.904V16.7637H125.206V23.6776H139V28.6024H118.946Z" fill="white"/>
<path d="M154.37 0.402774C158.548 0.402774 161.756 1.62454 163.994 4.06806C166.258 6.48473 167.39 9.96203 167.39 14.5C167.39 17.4 166.864 19.9106 165.813 22.0319C164.789 24.1532 163.293 25.7778 161.325 26.9056C159.384 28.0333 157.066 28.5972 154.37 28.5972H146V0.402774H154.37ZM154.37 26.1805C157.659 26.1805 160.152 25.2005 161.851 23.2403C163.549 21.2532 164.398 18.3532 164.398 14.5403C164.398 10.5931 163.562 7.65277 161.891 5.71944C160.247 3.7861 157.74 2.81944 154.37 2.81944H148.911V26.1805H154.37ZM193.344 28.4764C192.805 28.7717 192.226 28.9194 191.606 28.9194C191.12 28.9194 190.716 28.8255 190.393 28.6375C190.096 28.4495 189.826 28.1407 189.584 27.7111L184.974 19.8167C184.327 18.6889 183.532 17.8967 182.589 17.4403C181.672 16.9569 180.419 16.7153 178.828 16.7153H176.079V28.5972H173.167V0.402774H182.346C185.608 0.402774 188.169 1.12778 190.029 2.57778C191.889 4.00093 192.819 5.98796 192.819 8.53888C192.819 10.5528 192.145 12.2981 190.797 13.775C189.449 15.225 187.697 16.1245 185.54 16.4736C186.322 17.1181 187.023 17.937 187.643 18.9305L193.344 28.4764ZM182.144 14.2181C184.57 14.2181 186.443 13.7213 187.764 12.7278C189.112 11.7343 189.786 10.338 189.786 8.53888C189.786 6.6861 189.153 5.28982 187.886 4.35C186.646 3.38334 184.799 2.90001 182.346 2.90001H176.079V14.2181H182.144ZM215.539 26.1805C215.539 27.1472 215.391 27.7917 215.095 28.1139C214.825 28.4361 214.272 28.5972 213.437 28.5972H198.597V0.402774H215.499V2.81944H201.508V12.9694H213.558V15.3861H201.508V26.1805H215.539ZM239.217 28.5972C238.489 25.2676 237.802 22.5421 237.155 20.4208H223.407C222.76 22.5421 222.072 25.2676 221.345 28.5972H218.352C219.754 22.8509 221.277 17.7491 222.921 13.2917C224.566 8.8074 226.52 4.51111 228.785 0.402774H231.817C234.055 4.48425 235.995 8.76713 237.64 13.2514C239.284 17.7088 240.807 22.8241 242.209 28.5972H239.217ZM236.467 18.0042C234.823 12.7949 232.761 7.90787 230.281 3.34306C227.801 7.90787 225.738 12.7949 224.094 18.0042H236.467ZM270.356 28.5972C270.114 20.1657 269.346 12.1236 268.052 4.47083C267.081 6.67269 266.124 9.12963 265.181 11.8417C264.237 14.5268 262.728 19.1722 260.652 25.7778H258.549C256.716 19.9778 255.274 15.6143 254.223 12.6875C253.199 9.73379 252.161 7.03518 251.109 4.59166C249.815 11.9222 249.047 19.9241 248.805 28.5972H245.893C246.028 23.5491 246.352 18.5815 246.864 13.6944C247.403 8.80741 248.09 4.37685 248.926 0.402774H252.161C253.778 3.86666 255.139 7.03518 256.245 9.90833C257.35 12.7815 258.469 16.0708 259.601 19.7764C260.733 16.0708 261.852 12.7949 262.957 9.94861C264.062 7.07546 265.41 3.89351 267 0.402774H270.235C271.071 4.37685 271.745 8.80741 272.257 13.6944C272.796 18.5815 273.133 23.5491 273.268 28.5972H270.356ZM289.365 29C287.505 29 285.793 28.718 284.23 28.1541C282.666 27.5634 281.426 26.7713 280.51 25.7778C279.593 24.7843 279.135 23.6968 279.135 22.5153C279.135 21.9782 279.324 21.5486 279.701 21.2264C280.105 20.8773 280.631 20.6894 281.278 20.6625C281.709 22.569 282.626 24.019 284.027 25.0125C285.429 26.006 287.235 26.5028 289.446 26.5028C291.71 26.5028 293.53 25.9791 294.905 24.9319C296.307 23.8847 297.008 22.5153 297.008 20.8236C297.008 19.8301 296.752 18.9843 296.24 18.2861C295.754 17.588 294.946 16.9704 293.813 16.4333C292.681 15.8694 291.117 15.3324 289.122 14.8222C286.804 14.2046 284.984 13.5602 283.664 12.8889C282.343 12.1907 281.386 11.412 280.793 10.5528C280.227 9.66667 279.944 8.57917 279.944 7.29028C279.944 5.03472 280.779 3.2625 282.451 1.97361C284.122 0.657874 286.427 0 289.365 0C291.926 0 294.055 0.604169 295.754 1.8125C297.48 2.99398 298.639 4.67222 299.232 6.84722C298.881 7.1963 298.342 7.37083 297.614 7.37083C296.86 7.37083 296.307 7.00834 295.957 6.28334C295.363 5.10186 294.46 4.16204 293.247 3.46389C292.061 2.76574 290.767 2.41667 289.365 2.41667C287.235 2.41667 285.618 2.83287 284.513 3.66527C283.408 4.49768 282.855 5.70602 282.855 7.29028C282.855 8.09583 283.057 8.78055 283.461 9.34444C283.866 9.88148 284.54 10.3782 285.483 10.8347C286.427 11.2912 287.761 11.7611 289.486 12.2444C292.371 13.05 294.541 13.8153 295.997 14.5403C297.48 15.2653 298.517 16.0842 299.11 16.9972C299.703 17.9102 300 19.1051 300 20.5819C300 22.2736 299.569 23.7639 298.706 25.0528C297.843 26.3148 296.603 27.2949 294.986 27.993C293.395 28.6643 291.521 29 289.365 29Z" fill="white"/>
</svg>
